<svg xmlns="http://www.w3.org/2000/svg" width="32" height="32" viewBox="0 0 32 32">
  <rect width="32" height="32" rx="8" fill="#7C3AED"/>
  <g transform="translate(8 8)">
    <rect x="0" y="0" width="4" height="4" fill="white"/>
    <rect x="12" y="0" width="4" height="4" fill="white"/>
    <rect x="0" y="12" width="4" height="4" fill="white"/>
    <rect x="6" y="0" width="2" height="2" fill="white"/>
    <rect x="0" y="6" width="2" height="2" fill="white"/>
    <rect x="6" y="6" width="2" height="2" fill="white"/>
    <rect x="10" y="6" width="2" height="2" fill="white"/>
    <rect x="6" y="10" width="2" height="2" fill="white"/>
    <rect x="12" y="6" width="4" height="2" fill="white"/>
    <rect x="6" y="12" width="2" height="4" fill="white"/>
    <rect x="10" y="10" width="2" height="2" fill="white"/>
    <rect x="14" y="10" width="2" height="2" fill="white"/>
    <rect x="10" y="14" width="2" height="2" fill="white"/>
    <rect x="14" y="14" width="2" height="2" fill="white"/>
  </g>
</svg>
